<?xml version="1.0" encoding="utf-8" standalone="no"?>
<!DOCTYPE svg PUBLIC "-//W3C//DTD SVG 1.1//EN"
  "http://www.w3.org/Graphics/SVG/1.1/DTD/svg11.dtd">
<svg xmlns:xlink="http://www.w3.org/1999/xlink" width="360pt" height="288pt" viewBox="0 0 360 288" xmlns="http://www.w3.org/2000/svg" version="1.1">
 <metadata>
  <rdf:RDF xmlns:dc="http://purl.org/dc/elements/1.1/" xmlns:cc="http://creativecommons.org/ns#" xmlns:rdf="http://www.w3.org/1999/02/22-rdf-syntax-ns#">
   <cc:Work>
    <dc:type rdf:resource="http://purl.org/dc/dcmitype/StillImage"/>
    <dc:date>2022-05-03T21:49:15.460831</dc:date>
    <dc:format>image/svg+xml</dc:format>
    <dc:creator>
     <cc:Agent>
      <dc:title>Matplotlib v3.5.1, https://matplotlib.org/</dc:title>
     </cc:Agent>
    </dc:creator>
   </cc:Work>
  </rdf:RDF>
 </metadata>
 <defs>
  <style type="text/css">*{stroke-linejoin: round; stroke-linecap: butt}</style>
 </defs>
 <g id="figure_1">
  <g id="patch_1">
   <path d="M 0 288 
L 360 288 
L 360 0 
L 0 0 
z
" style="fill: #ffffff"/>
  </g>
  <g id="axes_1">
   <g id="patch_2">
    <path d="M 45 256.32 
L 324 256.32 
L 324 34.56 
L 45 34.56 
z
" style="fill: #ffffff"/>
   </g>
   <g id="matplotlib.axis_1">
    <g id="xtick_1">
     <g id="line2d_1">
      <defs>
       <path id="mfc504ce358" d="M 0 0 
L 0 3.5 
" style="stroke: #000000; stroke-width: 0.8"/>
      </defs>
      <g>
       <use xlink:href="#mfc504ce358" x="57.681818" y="256.32" style="stroke: #000000; stroke-width: 0.8"/>
      </g>
     </g>
     <g id="text_1">
      <!-- 0 -->
      <g transform="translate(54.500568 270.918437)scale(0.1 -0.1)">
       <defs>
        <path id="DejaVuSans-30" d="M 2034 4250 
Q 1547 4250 1301 3770 
Q 1056 3291 1056 2328 
Q 1056 1369 1301 889 
Q 1547 409 2034 409 
Q 2525 409 2770 889 
Q 3016 1369 3016 2328 
Q 3016 3291 2770 3770 
Q 2525 4250 2034 4250 
z
M 2034 4750 
Q 2819 4750 3233 4129 
Q 3647 3509 3647 2328 
Q 3647 1150 3233 529 
Q 2819 -91 2034 -91 
Q 1250 -91 836 529 
Q 422 1150 422 2328 
Q 422 3509 836 4129 
Q 1250 4750 2034 4750 
z
" transform="scale(0.015625)"/>
       </defs>
       <use xlink:href="#DejaVuSans-30"/>
      </g>
     </g>
    </g>
    <g id="xtick_2">
     <g id="line2d_2">
      <g>
       <use xlink:href="#mfc504ce358" x="91.5" y="256.32" style="stroke: #000000; stroke-width: 0.8"/>
      </g>
     </g>
     <g id="text_2">
      <!-- 100 -->
      <g transform="translate(81.95625 270.918437)scale(0.1 -0.1)">
       <defs>
        <path id="DejaVuSans-31" d="M 794 531 
L 1825 531 
L 1825 4091 
L 703 3866 
L 703 4441 
L 1819 4666 
L 2450 4666 
L 2450 531 
L 3481 531 
L 3481 0 
L 794 0 
L 794 531 
z
" transform="scale(0.015625)"/>
       </defs>
       <use xlink:href="#DejaVuSans-31"/>
       <use xlink:href="#DejaVuSans-30" x="63.623047"/>
       <use xlink:href="#DejaVuSans-30" x="127.246094"/>
      </g>
     </g>
    </g>
    <g id="xtick_3">
     <g id="line2d_3">
      <g>
       <use xlink:href="#mfc504ce358" x="125.318182" y="256.32" style="stroke: #000000; stroke-width: 0.8"/>
      </g>
     </g>
     <g id="text_3">
      <!-- 200 -->
      <g transform="translate(115.774432 270.918437)scale(0.1 -0.1)">
       <defs>
        <path id="DejaVuSans-32" d="M 1228 531 
L 3431 531 
L 3431 0 
L 469 0 
L 469 531 
Q 828 903 1448 1529 
Q 2069 2156 2228 2338 
Q 2531 2678 2651 2914 
Q 2772 3150 2772 3378 
Q 2772 3750 2511 3984 
Q 2250 4219 1831 4219 
Q 1534 4219 1204 4116 
Q 875 4013 500 3803 
L 500 4441 
Q 881 4594 1212 4672 
Q 1544 4750 1819 4750 
Q 2544 4750 2975 4387 
Q 3406 4025 3406 3419 
Q 3406 3131 3298 2873 
Q 3191 2616 2906 2266 
Q 2828 2175 2409 1742 
Q 1991 1309 1228 531 
z
" transform="scale(0.015625)"/>
       </defs>
       <use xlink:href="#DejaVuSans-32"/>
       <use xlink:href="#DejaVuSans-30" x="63.623047"/>
       <use xlink:href="#DejaVuSans-30" x="127.246094"/>
      </g>
     </g>
    </g>
    <g id="xtick_4">
     <g id="line2d_4">
      <g>
       <use xlink:href="#mfc504ce358" x="159.136364" y="256.32" style="stroke: #000000; stroke-width: 0.8"/>
      </g>
     </g>
     <g id="text_4">
      <!-- 300 -->
      <g transform="translate(149.592614 270.918437)scale(0.1 -0.1)">
       <defs>
        <path id="DejaVuSans-33" d="M 2597 2516 
Q 3050 2419 3304 2112 
Q 3559 1806 3559 1356 
Q 3559 666 3084 287 
Q 2609 -91 1734 -91 
Q 1441 -91 1130 -33 
Q 819 25 488 141 
L 488 750 
Q 750 597 1062 519 
Q 1375 441 1716 441 
Q 2309 441 2620 675 
Q 2931 909 2931 1356 
Q 2931 1769 2642 2001 
Q 2353 2234 1838 2234 
L 1294 2234 
L 1294 2753 
L 1863 2753 
Q 2328 2753 2575 2939 
Q 2822 3125 2822 3475 
Q 2822 3834 2567 4026 
Q 2313 4219 1838 4219 
Q 1578 4219 1281 4162 
Q 984 4106 628 3988 
L 628 4550 
Q 988 4650 1302 4700 
Q 1616 4750 1894 4750 
Q 2613 4750 3031 4423 
Q 3450 4097 3450 3541 
Q 3450 3153 3228 2886 
Q 3006 2619 2597 2516 
z
" transform="scale(0.015625)"/>
       </defs>
       <use xlink:href="#DejaVuSans-33"/>
       <use xlink:href="#DejaVuSans-30" x="63.623047"/>
       <use xlink:href="#DejaVuSans-30" x="127.246094"/>
      </g>
     </g>
    </g>
    <g id="xtick_5">
     <g id="line2d_5">
      <g>
       <use xlink:href="#mfc504ce358" x="192.954545" y="256.32" style="stroke: #000000; stroke-width: 0.8"/>
      </g>
     </g>
     <g id="text_5">
      <!-- 400 -->
      <g transform="translate(183.410795 270.918437)scale(0.1 -0.1)">
       <defs>
        <path id="DejaVuSans-34" d="M 2419 4116 
L 825 1625 
L 2419 1625 
L 2419 4116 
z
M 2253 4666 
L 3047 4666 
L 3047 1625 
L 3713 1625 
L 3713 1100 
L 3047 1100 
L 3047 0 
L 2419 0 
L 2419 1100 
L 313 1100 
L 313 1709 
L 2253 4666 
z
" transform="scale(0.015625)"/>
       </defs>
       <use xlink:href="#DejaVuSans-34"/>
       <use xlink:href="#DejaVuSans-30" x="63.623047"/>
       <use xlink:href="#DejaVuSans-30" x="127.246094"/>
      </g>
     </g>
    </g>
    <g id="xtick_6">
     <g id="line2d_6">
      <g>
       <use xlink:href="#mfc504ce358" x="226.772727" y="256.32" style="stroke: #000000; stroke-width: 0.8"/>
      </g>
     </g>
     <g id="text_6">
      <!-- 500 -->
      <g transform="translate(217.228977 270.918437)scale(0.1 -0.1)">
       <defs>
        <path id="DejaVuSans-35" d="M 691 4666 
L 3169 4666 
L 3169 4134 
L 1269 4134 
L 1269 2991 
Q 1406 3038 1543 3061 
Q 1681 3084 1819 3084 
Q 2600 3084 3056 2656 
Q 3513 2228 3513 1497 
Q 3513 744 3044 326 
Q 2575 -91 1722 -91 
Q 1428 -91 1123 -41 
Q 819 9 494 109 
L 494 744 
Q 775 591 1075 516 
Q 1375 441 1709 441 
Q 2250 441 2565 725 
Q 2881 1009 2881 1497 
Q 2881 1984 2565 2268 
Q 2250 2553 1709 2553 
Q 1456 2553 1204 2497 
Q 953 2441 691 2322 
L 691 4666 
z
" transform="scale(0.015625)"/>
       </defs>
       <use xlink:href="#DejaVuSans-35"/>
       <use xlink:href="#DejaVuSans-30" x="63.623047"/>
       <use xlink:href="#DejaVuSans-30" x="127.246094"/>
      </g>
     </g>
    </g>
    <g id="xtick_7">
     <g id="line2d_7">
      <g>
       <use xlink:href="#mfc504ce358" x="260.590909" y="256.32" style="stroke: #000000; stroke-width: 0.8"/>
      </g>
     </g>
     <g id="text_7">
      <!-- 600 -->
      <g transform="translate(251.047159 270.918437)scale(0.1 -0.1)">
       <defs>
        <path id="DejaVuSans-36" d="M 2113 2584 
Q 1688 2584 1439 2293 
Q 1191 2003 1191 1497 
Q 1191 994 1439 701 
Q 1688 409 2113 409 
Q 2538 409 2786 701 
Q 3034 994 3034 1497 
Q 3034 2003 2786 2293 
Q 2538 2584 2113 2584 
z
M 3366 4563 
L 3366 3988 
Q 3128 4100 2886 4159 
Q 2644 4219 2406 4219 
Q 1781 4219 1451 3797 
Q 1122 3375 1075 2522 
Q 1259 2794 1537 2939 
Q 1816 3084 2150 3084 
Q 2853 3084 3261 2657 
Q 3669 2231 3669 1497 
Q 3669 778 3244 343 
Q 2819 -91 2113 -91 
Q 1303 -91 875 529 
Q 447 1150 447 2328 
Q 447 3434 972 4092 
Q 1497 4750 2381 4750 
Q 2619 4750 2861 4703 
Q 3103 4656 3366 4563 
z
" transform="scale(0.015625)"/>
       </defs>
       <use xlink:href="#DejaVuSans-36"/>
       <use xlink:href="#DejaVuSans-30" x="63.623047"/>
       <use xlink:href="#DejaVuSans-30" x="127.246094"/>
      </g>
     </g>
    </g>
    <g id="xtick_8">
     <g id="line2d_8">
      <g>
       <use xlink:href="#mfc504ce358" x="294.409091" y="256.32" style="stroke: #000000; stroke-width: 0.8"/>
      </g>
     </g>
     <g id="text_8">
      <!-- 700 -->
      <g transform="translate(284.865341 270.918437)scale(0.1 -0.1)">
       <defs>
        <path id="DejaVuSans-37" d="M 525 4666 
L 3525 4666 
L 3525 4397 
L 1831 0 
L 1172 0 
L 2766 4134 
L 525 4134 
L 525 4666 
z
" transform="scale(0.015625)"/>
       </defs>
       <use xlink:href="#DejaVuSans-37"/>
       <use xlink:href="#DejaVuSans-30" x="63.623047"/>
       <use xlink:href="#DejaVuSans-30" x="127.246094"/>
      </g>
     </g>
    </g>
    <g id="text_9">
     <!-- steps -->
     <g transform="translate(171.079688 284.596563)scale(0.1 -0.1)">
      <defs>
       <path id="DejaVuSans-73" d="M 2834 3397 
L 2834 2853 
Q 2591 2978 2328 3040 
Q 2066 3103 1784 3103 
Q 1356 3103 1142 2972 
Q 928 2841 928 2578 
Q 928 2378 1081 2264 
Q 1234 2150 1697 2047 
L 1894 2003 
Q 2506 1872 2764 1633 
Q 3022 1394 3022 966 
Q 3022 478 2636 193 
Q 2250 -91 1575 -91 
Q 1294 -91 989 -36 
Q 684 19 347 128 
L 347 722 
Q 666 556 975 473 
Q 1284 391 1588 391 
Q 1994 391 2212 530 
Q 2431 669 2431 922 
Q 2431 1156 2273 1281 
Q 2116 1406 1581 1522 
L 1381 1569 
Q 847 1681 609 1914 
Q 372 2147 372 2553 
Q 372 3047 722 3315 
Q 1072 3584 1716 3584 
Q 2034 3584 2315 3537 
Q 2597 3491 2834 3397 
z
" transform="scale(0.015625)"/>
       <path id="DejaVuSans-74" d="M 1172 4494 
L 1172 3500 
L 2356 3500 
L 2356 3053 
L 1172 3053 
L 1172 1153 
Q 1172 725 1289 603 
Q 1406 481 1766 481 
L 2356 481 
L 2356 0 
L 1766 0 
Q 1100 0 847 248 
Q 594 497 594 1153 
L 594 3053 
L 172 3053 
L 172 3500 
L 594 3500 
L 594 4494 
L 1172 4494 
z
" transform="scale(0.015625)"/>
       <path id="DejaVuSans-65" d="M 3597 1894 
L 3597 1613 
L 953 1613 
Q 991 1019 1311 708 
Q 1631 397 2203 397 
Q 2534 397 2845 478 
Q 3156 559 3463 722 
L 3463 178 
Q 3153 47 2828 -22 
Q 2503 -91 2169 -91 
Q 1331 -91 842 396 
Q 353 884 353 1716 
Q 353 2575 817 3079 
Q 1281 3584 2069 3584 
Q 2775 3584 3186 3129 
Q 3597 2675 3597 1894 
z
M 3022 2063 
Q 3016 2534 2758 2815 
Q 2500 3097 2075 3097 
Q 1594 3097 1305 2825 
Q 1016 2553 972 2059 
L 3022 2063 
z
" transform="scale(0.015625)"/>
       <path id="DejaVuSans-70" d="M 1159 525 
L 1159 -1331 
L 581 -1331 
L 581 3500 
L 1159 3500 
L 1159 2969 
Q 1341 3281 1617 3432 
Q 1894 3584 2278 3584 
Q 2916 3584 3314 3078 
Q 3713 2572 3713 1747 
Q 3713 922 3314 415 
Q 2916 -91 2278 -91 
Q 1894 -91 1617 61 
Q 1341 213 1159 525 
z
M 3116 1747 
Q 3116 2381 2855 2742 
Q 2594 3103 2138 3103 
Q 1681 3103 1420 2742 
Q 1159 2381 1159 1747 
Q 1159 1113 1420 752 
Q 1681 391 2138 391 
Q 2594 391 2855 752 
Q 3116 1113 3116 1747 
z
" transform="scale(0.015625)"/>
      </defs>
      <use xlink:href="#DejaVuSans-73"/>
      <use xlink:href="#DejaVuSans-74" x="52.099609"/>
      <use xlink:href="#DejaVuSans-65" x="91.308594"/>
      <use xlink:href="#DejaVuSans-70" x="152.832031"/>
      <use xlink:href="#DejaVuSans-73" x="216.308594"/>
     </g>
    </g>
   </g>
   <g id="matplotlib.axis_2">
    <g id="ytick_1">
     <g id="line2d_9">
      <defs>
       <path id="mf115c65309" d="M 0 0 
L -3.5 0 
" style="stroke: #000000; stroke-width: 0.8"/>
      </defs>
      <g>
       <use xlink:href="#mf115c65309" x="45" y="214.808765" style="stroke: #000000; stroke-width: 0.8"/>
      </g>
     </g>
     <g id="text_10">
      <!-- 0.5 -->
      <g transform="translate(22.096875 218.607984)scale(0.1 -0.1)">
       <defs>
        <path id="DejaVuSans-2e" d="M 684 794 
L 1344 794 
L 1344 0 
L 684 0 
L 684 794 
z
" transform="scale(0.015625)"/>
       </defs>
       <use xlink:href="#DejaVuSans-30"/>
       <use xlink:href="#DejaVuSans-2e" x="63.623047"/>
       <use xlink:href="#DejaVuSans-35" x="95.410156"/>
      </g>
     </g>
    </g>
    <g id="ytick_2">
     <g id="line2d_10">
      <g>
       <use xlink:href="#mf115c65309" x="45" y="169.08124" style="stroke: #000000; stroke-width: 0.8"/>
      </g>
     </g>
     <g id="text_11">
      <!-- 1.0 -->
      <g transform="translate(22.096875 172.880459)scale(0.1 -0.1)">
       <use xlink:href="#DejaVuSans-31"/>
       <use xlink:href="#DejaVuSans-2e" x="63.623047"/>
       <use xlink:href="#DejaVuSans-30" x="95.410156"/>
      </g>
     </g>
    </g>
    <g id="ytick_3">
     <g id="line2d_11">
      <g>
       <use xlink:href="#mf115c65309" x="45" y="123.353715" style="stroke: #000000; stroke-width: 0.8"/>
      </g>
     </g>
     <g id="text_12">
      <!-- 1.5 -->
      <g transform="translate(22.096875 127.152934)scale(0.1 -0.1)">
       <use xlink:href="#DejaVuSans-31"/>
       <use xlink:href="#DejaVuSans-2e" x="63.623047"/>
       <use xlink:href="#DejaVuSans-35" x="95.410156"/>
      </g>
     </g>
    </g>
    <g id="ytick_4">
     <g id="line2d_12">
      <g>
       <use xlink:href="#mf115c65309" x="45" y="77.62619" style="stroke: #000000; stroke-width: 0.8"/>
      </g>
     </g>
     <g id="text_13">
      <!-- 2.0 -->
      <g transform="translate(22.096875 81.425409)scale(0.1 -0.1)">
       <use xlink:href="#DejaVuSans-32"/>
       <use xlink:href="#DejaVuSans-2e" x="63.623047"/>
       <use xlink:href="#DejaVuSans-30" x="95.410156"/>
      </g>
     </g>
    </g>
    <g id="text_14">
     <!-- loss -->
     <g transform="translate(16.017187 155.097813)rotate(-90)scale(0.1 -0.1)">
      <defs>
       <path id="DejaVuSans-6c" d="M 603 4863 
L 1178 4863 
L 1178 0 
L 603 0 
L 603 4863 
z
" transform="scale(0.015625)"/>
       <path id="DejaVuSans-6f" d="M 1959 3097 
Q 1497 3097 1228 2736 
Q 959 2375 959 1747 
Q 959 1119 1226 758 
Q 1494 397 1959 397 
Q 2419 397 2687 759 
Q 2956 1122 2956 1747 
Q 2956 2369 2687 2733 
Q 2419 3097 1959 3097 
z
M 1959 3584 
Q 2709 3584 3137 3096 
Q 3566 2609 3566 1747 
Q 3566 888 3137 398 
Q 2709 -91 1959 -91 
Q 1206 -91 779 398 
Q 353 888 353 1747 
Q 353 2609 779 3096 
Q 1206 3584 1959 3584 
z
" transform="scale(0.015625)"/>
      </defs>
      <use xlink:href="#DejaVuSans-6c"/>
      <use xlink:href="#DejaVuSans-6f" x="27.783203"/>
      <use xlink:href="#DejaVuSans-73" x="88.964844"/>
      <use xlink:href="#DejaVuSans-73" x="141.064453"/>
     </g>
    </g>
   </g>
   <g id="line2d_13">
    <path d="M 57.681818 44.64 
L 74.590909 63.881868 
L 91.5 72.439683 
L 108.409091 79.389809 
L 125.318182 84.675454 
L 142.227273 89.192968 
L 159.136364 92.329693 
L 176.045455 95.131967 
L 209.863636 99.723925 
L 226.772727 102.245432 
L 243.681818 104.420416 
L 260.590909 106.393102 
L 294.409091 110.05926 
L 311.318182 111.549886 
L 57.681818 149.488368 
L 74.590909 141.942046 
L 91.5 143.155563 
L 108.409091 142.752154 
L 125.318182 144.53754 
L 142.227273 145.971464 
L 159.136364 146.024782 
L 176.045455 146.741332 
L 192.954545 147.093251 
L 226.772727 148.593023 
L 243.681818 149.416301 
L 294.409091 150.71414 
L 311.318182 151.579945 
L 57.681818 170.00725 
L 74.590909 167.108738 
L 91.5 166.162727 
L 108.409091 166.814344 
L 125.318182 168.165592 
L 142.227273 168.375573 
L 159.136364 168.22833 
L 176.045455 168.512664 
L 192.954545 169.148597 
L 209.863636 169.07557 
L 226.772727 169.515908 
L 243.681818 170.297894 
L 294.409091 171.72912 
L 311.318182 171.930403 
L 57.681818 208.9045 
L 74.590909 179.419273 
L 91.5 179.769125 
L 108.409091 180.850636 
L 125.318182 182.120142 
L 159.136364 182.380313 
L 176.045455 182.510884 
L 192.954545 182.884441 
L 209.863636 183.607027 
L 226.772727 183.412128 
L 243.681818 183.491511 
L 260.590909 183.774957 
L 277.5 184.210219 
L 294.409091 184.422139 
L 311.318182 184.747252 
L 57.681818 180.700815 
L 74.590909 191.922413 
L 91.5 191.851636 
L 108.409091 191.432863 
L 125.318182 191.728647 
L 142.227273 191.87139 
L 159.136364 191.279091 
L 176.045455 192.225953 
L 192.954545 192.236022 
L 209.863636 192.772085 
L 243.681818 192.796614 
L 294.409091 192.764696 
L 311.318182 192.961425 
L 57.681818 204.595321 
L 74.590909 196.749484 
L 91.5 196.808354 
L 108.409091 197.846359 
L 125.318182 198.183746 
L 159.136364 198.020654 
L 176.045455 197.499113 
L 192.954545 198.421099 
L 209.863636 198.533068 
L 226.772727 199.082585 
L 243.681818 198.959797 
L 260.590909 199.05909 
L 294.409091 199.734266 
L 311.318182 199.852663 
L 57.681818 226.59284 
L 74.590909 205.709609 
L 91.5 206.161983 
L 108.409091 205.306723 
L 125.318182 205.435912 
L 142.227273 204.411195 
L 159.136364 204.831641 
L 176.045455 204.991459 
L 192.954545 205.335979 
L 209.863636 205.488864 
L 226.772727 205.485572 
L 243.681818 205.354682 
L 260.590909 205.07032 
L 277.5 205.042335 
L 294.409091 205.177881 
L 311.318182 205.078204 
L 57.681818 166.464528 
L 74.590909 208.26672 
L 91.5 208.651892 
L 108.409091 208.245091 
L 125.318182 208.638704 
L 142.227273 207.901952 
L 159.136364 208.398671 
L 176.045455 208.635503 
L 192.954545 208.484722 
L 209.863636 208.493145 
L 226.772727 208.202702 
L 277.5 208.497379 
L 294.409091 208.219959 
L 311.318182 208.267726 
L 57.681818 224.560077 
L 74.590909 214.810933 
L 91.5 214.566281 
L 108.409091 211.953136 
L 125.318182 213.05516 
L 142.227273 212.46586 
L 159.136364 212.186676 
L 176.045455 212.476286 
L 192.954545 212.462376 
L 209.863636 212.842555 
L 226.772727 212.946173 
L 243.681818 212.273302 
L 260.590909 212.144862 
L 277.5 212.470131 
L 294.409091 212.272963 
L 311.318182 212.241073 
L 57.681818 211.130644 
L 74.590909 216.374658 
L 91.5 215.758288 
L 125.318182 215.675 
L 142.227273 215.14232 
L 159.136364 215.25845 
L 176.045455 215.013816 
L 192.954545 215.189337 
L 209.863636 214.92719 
L 226.772727 214.983911 
L 243.681818 214.914469 
L 260.590909 215.093684 
L 277.5 214.911487 
L 311.318182 215.711948 
L 57.681818 227.899632 
L 74.590909 218.155114 
L 91.5 218.145274 
L 108.409091 217.990285 
L 125.318182 218.501555 
L 142.227273 218.420938 
L 176.045455 218.774046 
L 192.954545 218.656498 
L 209.863636 218.833967 
L 243.681818 218.724934 
L 260.590909 218.527858 
L 277.5 218.112259 
L 294.409091 218.216325 
L 311.318182 218.039607 
L 57.681818 204.930239 
L 74.590909 218.099738 
L 91.5 217.883502 
L 125.318182 219.306716 
L 142.227273 219.538893 
L 159.136364 219.329306 
L 176.045455 219.789316 
L 192.954545 220.056803 
L 209.863636 219.978573 
L 226.772727 220.078798 
L 260.590909 219.984142 
L 277.5 219.679387 
L 311.318182 219.541344 
L 57.681818 206.714115 
L 74.590909 224.159477 
L 91.5 225.425443 
L 108.409091 225.221672 
L 125.318182 225.267263 
L 142.227273 224.23458 
L 159.136364 223.721416 
L 209.863636 223.37032 
L 243.681818 222.688633 
L 260.590909 222.845743 
L 294.409091 222.211548 
L 311.318182 222.229135 
L 57.681818 219.6298 
L 74.590909 225.909058 
L 91.5 224.879804 
L 108.409091 225.042585 
L 125.318182 225.376286 
L 142.227273 225.426559 
L 159.136364 224.644189 
L 176.045455 224.579274 
L 192.954545 224.755032 
L 209.863636 224.655355 
L 226.772727 224.702071 
L 243.681818 224.879246 
L 260.590909 224.613743 
L 277.5 224.858587 
L 294.409091 224.506137 
L 311.318182 224.337019 
L 57.681818 192.304586 
L 74.590909 227.203485 
L 91.5 228.128361 
L 108.409091 227.829531 
L 125.318182 228.548011 
L 159.136364 226.906274 
L 176.045455 226.624108 
L 209.863636 226.329623 
L 226.772727 226.034077 
L 243.681818 226.086288 
L 260.590909 225.722691 
L 294.409091 225.761879 
L 311.318182 225.656093 
L 57.681818 230.96494 
L 74.590909 231.441165 
L 91.5 229.718938 
L 108.409091 228.607192 
L 125.318182 227.838805 
L 142.227273 227.685453 
L 159.136364 228.172214 
L 192.954545 227.471457 
L 209.863636 227.525928 
L 243.681818 227.166482 
L 260.590909 227.404622 
L 277.5 227.365598 
L 311.318182 227.003766 
L 57.681818 230.383706 
L 74.590909 229.210603 
L 91.5 231.216972 
L 108.409091 230.893312 
L 125.318182 230.31699 
L 142.227273 230.22955 
L 176.045455 229.74632 
L 192.954545 229.703592 
L 209.863636 229.069296 
L 226.772727 229.137604 
L 260.590909 229.582176 
L 277.5 229.526571 
L 311.318182 229.106427 
L 57.681818 219.977585 
L 74.590909 228.390782 
L 91.5 231.226593 
L 108.409091 231.650953 
L 125.318182 231.328528 
L 159.136364 231.001833 
L 176.045455 231.087682 
L 192.954545 230.732937 
L 209.863636 230.247676 
L 226.772727 230.15709 
L 243.681818 230.392861 
L 260.590909 230.107283 
L 277.5 229.981688 
L 294.409091 229.721727 
L 311.318182 229.936912 
L 57.681818 246.24 
L 74.590909 231.802805 
L 91.5 232.643744 
L 125.318182 232.363983 
L 142.227273 231.65645 
L 159.136364 231.256361 
L 176.045455 231.465016 
L 192.954545 231.462922 
L 209.863636 231.603424 
L 243.681818 231.590721 
L 260.590909 231.347597 
L 277.5 231.381015 
L 294.409091 231.562461 
L 311.318182 231.240146 
L 57.681818 229.470455 
L 74.590909 233.305302 
L 91.5 233.769793 
L 108.409091 233.485889 
L 125.318182 233.684465 
L 142.227273 233.527867 
L 159.136364 233.945359 
L 192.954545 233.967729 
L 226.772727 233.607735 
L 277.5 233.344015 
L 294.409091 233.195894 
L 311.318182 233.28081 
L 311.318182 233.28081 
" clip-path="url(#p8a64073e88)" style="fill: none; stroke: #1f77b4; stroke-width: 1.5; stroke-linecap: square"/>
   </g>
   <g id="patch_3">
    <path d="M 45 256.32 
L 45 34.56 
" style="fill: none; stroke: #000000; stroke-width: 0.8; stroke-linejoin: miter; stroke-linecap: square"/>
   </g>
   <g id="patch_4">
    <path d="M 324 256.32 
L 324 34.56 
" style="fill: none; stroke: #000000; stroke-width: 0.8; stroke-linejoin: miter; stroke-linecap: square"/>
   </g>
   <g id="patch_5">
    <path d="M 45 256.32 
L 324 256.32 
" style="fill: none; stroke: #000000; stroke-width: 0.8; stroke-linejoin: miter; stroke-linecap: square"/>
   </g>
   <g id="patch_6">
    <path d="M 45 34.56 
L 324 34.56 
" style="fill: none; stroke: #000000; stroke-width: 0.8; stroke-linejoin: miter; stroke-linecap: square"/>
   </g>
   <g id="text_15">
    <!-- train loss vs steps -->
    <g transform="translate(130.44375 28.56)scale(0.12 -0.12)">
     <defs>
      <path id="DejaVuSans-72" d="M 2631 2963 
Q 2534 3019 2420 3045 
Q 2306 3072 2169 3072 
Q 1681 3072 1420 2755 
Q 1159 2438 1159 1844 
L 1159 0 
L 581 0 
L 581 3500 
L 1159 3500 
L 1159 2956 
Q 1341 3275 1631 3429 
Q 1922 3584 2338 3584 
Q 2397 3584 2469 3576 
Q 2541 3569 2628 3553 
L 2631 2963 
z
" transform="scale(0.015625)"/>
      <path id="DejaVuSans-61" d="M 2194 1759 
Q 1497 1759 1228 1600 
Q 959 1441 959 1056 
Q 959 750 1161 570 
Q 1363 391 1709 391 
Q 2188 391 2477 730 
Q 2766 1069 2766 1631 
L 2766 1759 
L 2194 1759 
z
M 3341 1997 
L 3341 0 
L 2766 0 
L 2766 531 
Q 2569 213 2275 61 
Q 1981 -91 1556 -91 
Q 1019 -91 701 211 
Q 384 513 384 1019 
Q 384 1609 779 1909 
Q 1175 2209 1959 2209 
L 2766 2209 
L 2766 2266 
Q 2766 2663 2505 2880 
Q 2244 3097 1772 3097 
Q 1472 3097 1187 3025 
Q 903 2953 641 2809 
L 641 3341 
Q 956 3463 1253 3523 
Q 1550 3584 1831 3584 
Q 2591 3584 2966 3190 
Q 3341 2797 3341 1997 
z
" transform="scale(0.015625)"/>
      <path id="DejaVuSans-69" d="M 603 3500 
L 1178 3500 
L 1178 0 
L 603 0 
L 603 3500 
z
M 603 4863 
L 1178 4863 
L 1178 4134 
L 603 4134 
L 603 4863 
z
" transform="scale(0.015625)"/>
      <path id="DejaVuSans-6e" d="M 3513 2113 
L 3513 0 
L 2938 0 
L 2938 2094 
Q 2938 2591 2744 2837 
Q 2550 3084 2163 3084 
Q 1697 3084 1428 2787 
Q 1159 2491 1159 1978 
L 1159 0 
L 581 0 
L 581 3500 
L 1159 3500 
L 1159 2956 
Q 1366 3272 1645 3428 
Q 1925 3584 2291 3584 
Q 2894 3584 3203 3211 
Q 3513 2838 3513 2113 
z
" transform="scale(0.015625)"/>
      <path id="DejaVuSans-20" transform="scale(0.015625)"/>
      <path id="DejaVuSans-76" d="M 191 3500 
L 800 3500 
L 1894 563 
L 2988 3500 
L 3597 3500 
L 2284 0 
L 1503 0 
L 191 3500 
z
" transform="scale(0.015625)"/>
     </defs>
     <use xlink:href="#DejaVuSans-74"/>
     <use xlink:href="#DejaVuSans-72" x="39.208984"/>
     <use xlink:href="#DejaVuSans-61" x="80.322266"/>
     <use xlink:href="#DejaVuSans-69" x="141.601562"/>
     <use xlink:href="#DejaVuSans-6e" x="169.384766"/>
     <use xlink:href="#DejaVuSans-20" x="232.763672"/>
     <use xlink:href="#DejaVuSans-6c" x="264.550781"/>
     <use xlink:href="#DejaVuSans-6f" x="292.333984"/>
     <use xlink:href="#DejaVuSans-73" x="353.515625"/>
     <use xlink:href="#DejaVuSans-73" x="405.615234"/>
     <use xlink:href="#DejaVuSans-20" x="457.714844"/>
     <use xlink:href="#DejaVuSans-76" x="489.501953"/>
     <use xlink:href="#DejaVuSans-73" x="548.681641"/>
     <use xlink:href="#DejaVuSans-20" x="600.78125"/>
     <use xlink:href="#DejaVuSans-73" x="632.568359"/>
     <use xlink:href="#DejaVuSans-74" x="684.667969"/>
     <use xlink:href="#DejaVuSans-65" x="723.876953"/>
     <use xlink:href="#DejaVuSans-70" x="785.400391"/>
     <use xlink:href="#DejaVuSans-73" x="848.876953"/>
    </g>
   </g>
  </g>
 </g>
 <defs>
  <clipPath id="p8a64073e88">
   <rect x="45" y="34.56" width="279" height="221.76"/>
  </clipPath>
 </defs>
</svg>
