<?xml version="1.0" encoding="utf-8" standalone="no"?>
<!DOCTYPE svg PUBLIC "-//W3C//DTD SVG 1.1//EN"
  "http://www.w3.org/Graphics/SVG/1.1/DTD/svg11.dtd">
<svg xmlns:xlink="http://www.w3.org/1999/xlink" width="360pt" height="288pt" viewBox="0 0 360 288" xmlns="http://www.w3.org/2000/svg" version="1.1">
 <metadata>
  <rdf:RDF xmlns:dc="http://purl.org/dc/elements/1.1/" xmlns:cc="http://creativecommons.org/ns#" xmlns:rdf="http://www.w3.org/1999/02/22-rdf-syntax-ns#">
   <cc:Work>
    <dc:type rdf:resource="http://purl.org/dc/dcmitype/StillImage"/>
    <dc:date>2022-05-03T21:49:15.296957</dc:date>
    <dc:format>image/svg+xml</dc:format>
    <dc:creator>
     <cc:Agent>
      <dc:title>Matplotlib v3.5.1, https://matplotlib.org/</dc:title>
     </cc:Agent>
    </dc:creator>
   </cc:Work>
  </rdf:RDF>
 </metadata>
 <defs>
  <style type="text/css">*{stroke-linejoin: round; stroke-linecap: butt}</style>
 </defs>
 <g id="figure_1">
  <g id="patch_1">
   <path d="M 0 288 
L 360 288 
L 360 0 
L 0 0 
z
" style="fill: #ffffff"/>
  </g>
  <g id="axes_1">
   <g id="patch_2">
    <path d="M 45 256.32 
L 324 256.32 
L 324 34.56 
L 45 34.56 
z
" style="fill: #ffffff"/>
   </g>
   <g id="matplotlib.axis_1">
    <g id="xtick_1">
     <g id="line2d_1">
      <defs>
       <path id="m3aa92db799" d="M 0 0 
L 0 3.5 
" style="stroke: #000000; stroke-width: 0.8"/>
      </defs>
      <g>
       <use xlink:href="#m3aa92db799" x="57.681818" y="256.32" style="stroke: #000000; stroke-width: 0.8"/>
      </g>
     </g>
     <g id="text_1">
      <!-- 0 -->
      <g transform="translate(54.500568 270.918437)scale(0.1 -0.1)">
       <defs>
        <path id="DejaVuSans-30" d="M 2034 4250 
Q 1547 4250 1301 3770 
Q 1056 3291 1056 2328 
Q 1056 1369 1301 889 
Q 1547 409 2034 409 
Q 2525 409 2770 889 
Q 3016 1369 3016 2328 
Q 3016 3291 2770 3770 
Q 2525 4250 2034 4250 
z
M 2034 4750 
Q 2819 4750 3233 4129 
Q 3647 3509 3647 2328 
Q 3647 1150 3233 529 
Q 2819 -91 2034 -91 
Q 1250 -91 836 529 
Q 422 1150 422 2328 
Q 422 3509 836 4129 
Q 1250 4750 2034 4750 
z
" transform="scale(0.015625)"/>
       </defs>
       <use xlink:href="#DejaVuSans-30"/>
      </g>
     </g>
    </g>
    <g id="xtick_2">
     <g id="line2d_2">
      <g>
       <use xlink:href="#m3aa92db799" x="91.5" y="256.32" style="stroke: #000000; stroke-width: 0.8"/>
      </g>
     </g>
     <g id="text_2">
      <!-- 100 -->
      <g transform="translate(81.95625 270.918437)scale(0.1 -0.1)">
       <defs>
        <path id="DejaVuSans-31" d="M 794 531 
L 1825 531 
L 1825 4091 
L 703 3866 
L 703 4441 
L 1819 4666 
L 2450 4666 
L 2450 531 
L 3481 531 
L 3481 0 
L 794 0 
L 794 531 
z
" transform="scale(0.015625)"/>
       </defs>
       <use xlink:href="#DejaVuSans-31"/>
       <use xlink:href="#DejaVuSans-30" x="63.623047"/>
       <use xlink:href="#DejaVuSans-30" x="127.246094"/>
      </g>
     </g>
    </g>
    <g id="xtick_3">
     <g id="line2d_3">
      <g>
       <use xlink:href="#m3aa92db799" x="125.318182" y="256.32" style="stroke: #000000; stroke-width: 0.8"/>
      </g>
     </g>
     <g id="text_3">
      <!-- 200 -->
      <g transform="translate(115.774432 270.918437)scale(0.1 -0.1)">
       <defs>
        <path id="DejaVuSans-32" d="M 1228 531 
L 3431 531 
L 3431 0 
L 469 0 
L 469 531 
Q 828 903 1448 1529 
Q 2069 2156 2228 2338 
Q 2531 2678 2651 2914 
Q 2772 3150 2772 3378 
Q 2772 3750 2511 3984 
Q 2250 4219 1831 4219 
Q 1534 4219 1204 4116 
Q 875 4013 500 3803 
L 500 4441 
Q 881 4594 1212 4672 
Q 1544 4750 1819 4750 
Q 2544 4750 2975 4387 
Q 3406 4025 3406 3419 
Q 3406 3131 3298 2873 
Q 3191 2616 2906 2266 
Q 2828 2175 2409 1742 
Q 1991 1309 1228 531 
z
" transform="scale(0.015625)"/>
       </defs>
       <use xlink:href="#DejaVuSans-32"/>
       <use xlink:href="#DejaVuSans-30" x="63.623047"/>
       <use xlink:href="#DejaVuSans-30" x="127.246094"/>
      </g>
     </g>
    </g>
    <g id="xtick_4">
     <g id="line2d_4">
      <g>
       <use xlink:href="#m3aa92db799" x="159.136364" y="256.32" style="stroke: #000000; stroke-width: 0.8"/>
      </g>
     </g>
     <g id="text_4">
      <!-- 300 -->
      <g transform="translate(149.592614 270.918437)scale(0.1 -0.1)">
       <defs>
        <path id="DejaVuSans-33" d="M 2597 2516 
Q 3050 2419 3304 2112 
Q 3559 1806 3559 1356 
Q 3559 666 3084 287 
Q 2609 -91 1734 -91 
Q 1441 -91 1130 -33 
Q 819 25 488 141 
L 488 750 
Q 750 597 1062 519 
Q 1375 441 1716 441 
Q 2309 441 2620 675 
Q 2931 909 2931 1356 
Q 2931 1769 2642 2001 
Q 2353 2234 1838 2234 
L 1294 2234 
L 1294 2753 
L 1863 2753 
Q 2328 2753 2575 2939 
Q 2822 3125 2822 3475 
Q 2822 3834 2567 4026 
Q 2313 4219 1838 4219 
Q 1578 4219 1281 4162 
Q 984 4106 628 3988 
L 628 4550 
Q 988 4650 1302 4700 
Q 1616 4750 1894 4750 
Q 2613 4750 3031 4423 
Q 3450 4097 3450 3541 
Q 3450 3153 3228 2886 
Q 3006 2619 2597 2516 
z
" transform="scale(0.015625)"/>
       </defs>
       <use xlink:href="#DejaVuSans-33"/>
       <use xlink:href="#DejaVuSans-30" x="63.623047"/>
       <use xlink:href="#DejaVuSans-30" x="127.246094"/>
      </g>
     </g>
    </g>
    <g id="xtick_5">
     <g id="line2d_5">
      <g>
       <use xlink:href="#m3aa92db799" x="192.954545" y="256.32" style="stroke: #000000; stroke-width: 0.8"/>
      </g>
     </g>
     <g id="text_5">
      <!-- 400 -->
      <g transform="translate(183.410795 270.918437)scale(0.1 -0.1)">
       <defs>
        <path id="DejaVuSans-34" d="M 2419 4116 
L 825 1625 
L 2419 1625 
L 2419 4116 
z
M 2253 4666 
L 3047 4666 
L 3047 1625 
L 3713 1625 
L 3713 1100 
L 3047 1100 
L 3047 0 
L 2419 0 
L 2419 1100 
L 313 1100 
L 313 1709 
L 2253 4666 
z
" transform="scale(0.015625)"/>
       </defs>
       <use xlink:href="#DejaVuSans-34"/>
       <use xlink:href="#DejaVuSans-30" x="63.623047"/>
       <use xlink:href="#DejaVuSans-30" x="127.246094"/>
      </g>
     </g>
    </g>
    <g id="xtick_6">
     <g id="line2d_6">
      <g>
       <use xlink:href="#m3aa92db799" x="226.772727" y="256.32" style="stroke: #000000; stroke-width: 0.8"/>
      </g>
     </g>
     <g id="text_6">
      <!-- 500 -->
      <g transform="translate(217.228977 270.918437)scale(0.1 -0.1)">
       <defs>
        <path id="DejaVuSans-35" d="M 691 4666 
L 3169 4666 
L 3169 4134 
L 1269 4134 
L 1269 2991 
Q 1406 3038 1543 3061 
Q 1681 3084 1819 3084 
Q 2600 3084 3056 2656 
Q 3513 2228 3513 1497 
Q 3513 744 3044 326 
Q 2575 -91 1722 -91 
Q 1428 -91 1123 -41 
Q 819 9 494 109 
L 494 744 
Q 775 591 1075 516 
Q 1375 441 1709 441 
Q 2250 441 2565 725 
Q 2881 1009 2881 1497 
Q 2881 1984 2565 2268 
Q 2250 2553 1709 2553 
Q 1456 2553 1204 2497 
Q 953 2441 691 2322 
L 691 4666 
z
" transform="scale(0.015625)"/>
       </defs>
       <use xlink:href="#DejaVuSans-35"/>
       <use xlink:href="#DejaVuSans-30" x="63.623047"/>
       <use xlink:href="#DejaVuSans-30" x="127.246094"/>
      </g>
     </g>
    </g>
    <g id="xtick_7">
     <g id="line2d_7">
      <g>
       <use xlink:href="#m3aa92db799" x="260.590909" y="256.32" style="stroke: #000000; stroke-width: 0.8"/>
      </g>
     </g>
     <g id="text_7">
      <!-- 600 -->
      <g transform="translate(251.047159 270.918437)scale(0.1 -0.1)">
       <defs>
        <path id="DejaVuSans-36" d="M 2113 2584 
Q 1688 2584 1439 2293 
Q 1191 2003 1191 1497 
Q 1191 994 1439 701 
Q 1688 409 2113 409 
Q 2538 409 2786 701 
Q 3034 994 3034 1497 
Q 3034 2003 2786 2293 
Q 2538 2584 2113 2584 
z
M 3366 4563 
L 3366 3988 
Q 3128 4100 2886 4159 
Q 2644 4219 2406 4219 
Q 1781 4219 1451 3797 
Q 1122 3375 1075 2522 
Q 1259 2794 1537 2939 
Q 1816 3084 2150 3084 
Q 2853 3084 3261 2657 
Q 3669 2231 3669 1497 
Q 3669 778 3244 343 
Q 2819 -91 2113 -91 
Q 1303 -91 875 529 
Q 447 1150 447 2328 
Q 447 3434 972 4092 
Q 1497 4750 2381 4750 
Q 2619 4750 2861 4703 
Q 3103 4656 3366 4563 
z
" transform="scale(0.015625)"/>
       </defs>
       <use xlink:href="#DejaVuSans-36"/>
       <use xlink:href="#DejaVuSans-30" x="63.623047"/>
       <use xlink:href="#DejaVuSans-30" x="127.246094"/>
      </g>
     </g>
    </g>
    <g id="xtick_8">
     <g id="line2d_8">
      <g>
       <use xlink:href="#m3aa92db799" x="294.409091" y="256.32" style="stroke: #000000; stroke-width: 0.8"/>
      </g>
     </g>
     <g id="text_8">
      <!-- 700 -->
      <g transform="translate(284.865341 270.918437)scale(0.1 -0.1)">
       <defs>
        <path id="DejaVuSans-37" d="M 525 4666 
L 3525 4666 
L 3525 4397 
L 1831 0 
L 1172 0 
L 2766 4134 
L 525 4134 
L 525 4666 
z
" transform="scale(0.015625)"/>
       </defs>
       <use xlink:href="#DejaVuSans-37"/>
       <use xlink:href="#DejaVuSans-30" x="63.623047"/>
       <use xlink:href="#DejaVuSans-30" x="127.246094"/>
      </g>
     </g>
    </g>
    <g id="text_9">
     <!-- steps -->
     <g transform="translate(171.079688 284.596563)scale(0.1 -0.1)">
      <defs>
       <path id="DejaVuSans-73" d="M 2834 3397 
L 2834 2853 
Q 2591 2978 2328 3040 
Q 2066 3103 1784 3103 
Q 1356 3103 1142 2972 
Q 928 2841 928 2578 
Q 928 2378 1081 2264 
Q 1234 2150 1697 2047 
L 1894 2003 
Q 2506 1872 2764 1633 
Q 3022 1394 3022 966 
Q 3022 478 2636 193 
Q 2250 -91 1575 -91 
Q 1294 -91 989 -36 
Q 684 19 347 128 
L 347 722 
Q 666 556 975 473 
Q 1284 391 1588 391 
Q 1994 391 2212 530 
Q 2431 669 2431 922 
Q 2431 1156 2273 1281 
Q 2116 1406 1581 1522 
L 1381 1569 
Q 847 1681 609 1914 
Q 372 2147 372 2553 
Q 372 3047 722 3315 
Q 1072 3584 1716 3584 
Q 2034 3584 2315 3537 
Q 2597 3491 2834 3397 
z
" transform="scale(0.015625)"/>
       <path id="DejaVuSans-74" d="M 1172 4494 
L 1172 3500 
L 2356 3500 
L 2356 3053 
L 1172 3053 
L 1172 1153 
Q 1172 725 1289 603 
Q 1406 481 1766 481 
L 2356 481 
L 2356 0 
L 1766 0 
Q 1100 0 847 248 
Q 594 497 594 1153 
L 594 3053 
L 172 3053 
L 172 3500 
L 594 3500 
L 594 4494 
L 1172 4494 
z
" transform="scale(0.015625)"/>
       <path id="DejaVuSans-65" d="M 3597 1894 
L 3597 1613 
L 953 1613 
Q 991 1019 1311 708 
Q 1631 397 2203 397 
Q 2534 397 2845 478 
Q 3156 559 3463 722 
L 3463 178 
Q 3153 47 2828 -22 
Q 2503 -91 2169 -91 
Q 1331 -91 842 396 
Q 353 884 353 1716 
Q 353 2575 817 3079 
Q 1281 3584 2069 3584 
Q 2775 3584 3186 3129 
Q 3597 2675 3597 1894 
z
M 3022 2063 
Q 3016 2534 2758 2815 
Q 2500 3097 2075 3097 
Q 1594 3097 1305 2825 
Q 1016 2553 972 2059 
L 3022 2063 
z
" transform="scale(0.015625)"/>
       <path id="DejaVuSans-70" d="M 1159 525 
L 1159 -1331 
L 581 -1331 
L 581 3500 
L 1159 3500 
L 1159 2969 
Q 1341 3281 1617 3432 
Q 1894 3584 2278 3584 
Q 2916 3584 3314 3078 
Q 3713 2572 3713 1747 
Q 3713 922 3314 415 
Q 2916 -91 2278 -91 
Q 1894 -91 1617 61 
Q 1341 213 1159 525 
z
M 3116 1747 
Q 3116 2381 2855 2742 
Q 2594 3103 2138 3103 
Q 1681 3103 1420 2742 
Q 1159 2381 1159 1747 
Q 1159 1113 1420 752 
Q 1681 391 2138 391 
Q 2594 391 2855 752 
Q 3116 1113 3116 1747 
z
" transform="scale(0.015625)"/>
      </defs>
      <use xlink:href="#DejaVuSans-73"/>
      <use xlink:href="#DejaVuSans-74" x="52.099609"/>
      <use xlink:href="#DejaVuSans-65" x="91.308594"/>
      <use xlink:href="#DejaVuSans-70" x="152.832031"/>
      <use xlink:href="#DejaVuSans-73" x="216.308594"/>
     </g>
    </g>
   </g>
   <g id="matplotlib.axis_2">
    <g id="ytick_1">
     <g id="line2d_9">
      <defs>
       <path id="m83a8f53e64" d="M 0 0 
L -3.5 0 
" style="stroke: #000000; stroke-width: 0.8"/>
      </defs>
      <g>
       <use xlink:href="#m83a8f53e64" x="45" y="238.594043" style="stroke: #000000; stroke-width: 0.8"/>
      </g>
     </g>
     <g id="text_10">
      <!-- 0.2 -->
      <g transform="translate(22.096875 242.393262)scale(0.1 -0.1)">
       <defs>
        <path id="DejaVuSans-2e" d="M 684 794 
L 1344 794 
L 1344 0 
L 684 0 
L 684 794 
z
" transform="scale(0.015625)"/>
       </defs>
       <use xlink:href="#DejaVuSans-30"/>
       <use xlink:href="#DejaVuSans-2e" x="63.623047"/>
       <use xlink:href="#DejaVuSans-32" x="95.410156"/>
      </g>
     </g>
    </g>
    <g id="ytick_2">
     <g id="line2d_10">
      <g>
       <use xlink:href="#m83a8f53e64" x="45" y="204.084397" style="stroke: #000000; stroke-width: 0.8"/>
      </g>
     </g>
     <g id="text_11">
      <!-- 0.4 -->
      <g transform="translate(22.096875 207.883616)scale(0.1 -0.1)">
       <use xlink:href="#DejaVuSans-30"/>
       <use xlink:href="#DejaVuSans-2e" x="63.623047"/>
       <use xlink:href="#DejaVuSans-34" x="95.410156"/>
      </g>
     </g>
    </g>
    <g id="ytick_3">
     <g id="line2d_11">
      <g>
       <use xlink:href="#m83a8f53e64" x="45" y="169.574752" style="stroke: #000000; stroke-width: 0.8"/>
      </g>
     </g>
     <g id="text_12">
      <!-- 0.6 -->
      <g transform="translate(22.096875 173.373971)scale(0.1 -0.1)">
       <use xlink:href="#DejaVuSans-30"/>
       <use xlink:href="#DejaVuSans-2e" x="63.623047"/>
       <use xlink:href="#DejaVuSans-36" x="95.410156"/>
      </g>
     </g>
    </g>
    <g id="ytick_4">
     <g id="line2d_12">
      <g>
       <use xlink:href="#m83a8f53e64" x="45" y="135.065106" style="stroke: #000000; stroke-width: 0.8"/>
      </g>
     </g>
     <g id="text_13">
      <!-- 0.8 -->
      <g transform="translate(22.096875 138.864325)scale(0.1 -0.1)">
       <defs>
        <path id="DejaVuSans-38" d="M 2034 2216 
Q 1584 2216 1326 1975 
Q 1069 1734 1069 1313 
Q 1069 891 1326 650 
Q 1584 409 2034 409 
Q 2484 409 2743 651 
Q 3003 894 3003 1313 
Q 3003 1734 2745 1975 
Q 2488 2216 2034 2216 
z
M 1403 2484 
Q 997 2584 770 2862 
Q 544 3141 544 3541 
Q 544 4100 942 4425 
Q 1341 4750 2034 4750 
Q 2731 4750 3128 4425 
Q 3525 4100 3525 3541 
Q 3525 3141 3298 2862 
Q 3072 2584 2669 2484 
Q 3125 2378 3379 2068 
Q 3634 1759 3634 1313 
Q 3634 634 3220 271 
Q 2806 -91 2034 -91 
Q 1263 -91 848 271 
Q 434 634 434 1313 
Q 434 1759 690 2068 
Q 947 2378 1403 2484 
z
M 1172 3481 
Q 1172 3119 1398 2916 
Q 1625 2713 2034 2713 
Q 2441 2713 2670 2916 
Q 2900 3119 2900 3481 
Q 2900 3844 2670 4047 
Q 2441 4250 2034 4250 
Q 1625 4250 1398 4047 
Q 1172 3844 1172 3481 
z
" transform="scale(0.015625)"/>
       </defs>
       <use xlink:href="#DejaVuSans-30"/>
       <use xlink:href="#DejaVuSans-2e" x="63.623047"/>
       <use xlink:href="#DejaVuSans-38" x="95.410156"/>
      </g>
     </g>
    </g>
    <g id="ytick_5">
     <g id="line2d_13">
      <g>
       <use xlink:href="#m83a8f53e64" x="45" y="100.555461" style="stroke: #000000; stroke-width: 0.8"/>
      </g>
     </g>
     <g id="text_14">
      <!-- 1.0 -->
      <g transform="translate(22.096875 104.35468)scale(0.1 -0.1)">
       <use xlink:href="#DejaVuSans-31"/>
       <use xlink:href="#DejaVuSans-2e" x="63.623047"/>
       <use xlink:href="#DejaVuSans-30" x="95.410156"/>
      </g>
     </g>
    </g>
    <g id="ytick_6">
     <g id="line2d_14">
      <g>
       <use xlink:href="#m83a8f53e64" x="45" y="66.045815" style="stroke: #000000; stroke-width: 0.8"/>
      </g>
     </g>
     <g id="text_15">
      <!-- 1.2 -->
      <g transform="translate(22.096875 69.845034)scale(0.1 -0.1)">
       <use xlink:href="#DejaVuSans-31"/>
       <use xlink:href="#DejaVuSans-2e" x="63.623047"/>
       <use xlink:href="#DejaVuSans-32" x="95.410156"/>
      </g>
     </g>
    </g>
    <g id="text_16">
     <!-- loss -->
     <g transform="translate(16.017187 155.097813)rotate(-90)scale(0.1 -0.1)">
      <defs>
       <path id="DejaVuSans-6c" d="M 603 4863 
L 1178 4863 
L 1178 0 
L 603 0 
L 603 4863 
z
" transform="scale(0.015625)"/>
       <path id="DejaVuSans-6f" d="M 1959 3097 
Q 1497 3097 1228 2736 
Q 959 2375 959 1747 
Q 959 1119 1226 758 
Q 1494 397 1959 397 
Q 2419 397 2687 759 
Q 2956 1122 2956 1747 
Q 2956 2369 2687 2733 
Q 2419 3097 1959 3097 
z
M 1959 3584 
Q 2709 3584 3137 3096 
Q 3566 2609 3566 1747 
Q 3566 888 3137 398 
Q 2709 -91 1959 -91 
Q 1206 -91 779 398 
Q 353 888 353 1747 
Q 353 2609 779 3096 
Q 1206 3584 1959 3584 
z
" transform="scale(0.015625)"/>
      </defs>
      <use xlink:href="#DejaVuSans-6c"/>
      <use xlink:href="#DejaVuSans-6f" x="27.783203"/>
      <use xlink:href="#DejaVuSans-73" x="88.964844"/>
      <use xlink:href="#DejaVuSans-73" x="141.064453"/>
     </g>
    </g>
   </g>
   <g id="line2d_15">
    <path d="M 57.681818 56.928195 
L 74.590909 47.717915 
L 91.5 49.009094 
L 108.409091 47.760707 
L 125.318182 46.965605 
L 142.227273 45.108641 
L 159.136364 44.64 
L 176.045455 45.548294 
L 192.954545 45.396106 
L 209.863636 45.487384 
L 226.772727 45.392828 
L 260.590909 46.391365 
L 277.5 46.610501 
L 294.409091 46.261436 
L 311.318182 46.448305 
L 57.681818 108.673406 
L 74.590909 95.559672 
L 91.5 95.262544 
L 108.409091 93.533783 
L 125.318182 93.960495 
L 159.136364 94.122518 
L 176.045455 94.54923 
L 192.954545 93.96153 
L 209.863636 94.802703 
L 226.772727 93.676653 
L 243.681818 94.154784 
L 260.590909 94.321293 
L 277.5 94.692272 
L 294.409091 94.760256 
L 311.318182 94.716774 
L 57.681818 169.810315 
L 74.590909 126.841596 
L 91.5 125.279241 
L 125.318182 122.802363 
L 142.227273 122.901612 
L 176.045455 120.884075 
L 192.954545 122.060043 
L 209.863636 122.007191 
L 243.681818 121.492549 
L 260.590909 121.435798 
L 277.5 120.548469 
L 294.409091 121.179219 
L 311.318182 121.085698 
L 57.681818 161.876375 
L 74.590909 125.812984 
L 91.5 127.398599 
L 108.409091 131.673792 
L 125.318182 130.165306 
L 142.227273 129.374121 
L 159.136364 129.012235 
L 176.045455 130.57692 
L 192.954545 131.295135 
L 226.772727 130.849909 
L 243.681818 131.608948 
L 260.590909 132.037058 
L 277.5 131.772489 
L 294.409091 131.934909 
L 311.318182 131.506455 
L 57.681818 104.594194 
L 74.590909 136.653706 
L 91.5 137.949492 
L 108.409091 138.229123 
L 125.318182 141.406806 
L 142.227273 141.998681 
L 159.136364 140.915803 
L 176.045455 141.40496 
L 192.954545 141.56593 
L 226.772727 141.678673 
L 243.681818 142.134683 
L 260.590909 142.291685 
L 277.5 141.998181 
L 294.409091 142.374629 
L 311.318182 142.113063 
L 57.681818 139.569754 
L 74.590909 151.999783 
L 91.5 155.838947 
L 108.409091 155.795154 
L 125.318182 155.376811 
L 142.227273 156.12165 
L 159.136364 156.507485 
L 176.045455 156.150396 
L 192.954545 156.197588 
L 209.863636 156.885762 
L 226.772727 157.426166 
L 243.681818 156.893113 
L 260.590909 156.548206 
L 277.5 156.824611 
L 294.409091 156.595036 
L 311.318182 156.744204 
L 57.681818 201.082576 
L 74.590909 179.806344 
L 91.5 178.363945 
L 108.409091 176.525219 
L 142.227273 171.278631 
L 159.136364 171.973863 
L 176.045455 172.208959 
L 192.954545 171.761766 
L 209.863636 171.525617 
L 226.772727 171.785888 
L 243.681818 171.432872 
L 260.590909 171.694145 
L 294.409091 171.03489 
L 311.318182 170.958433 
L 57.681818 178.194744 
L 74.590909 155.867918 
L 91.5 156.893389 
L 108.409091 155.456166 
L 125.318182 157.157888 
L 142.227273 155.692747 
L 159.136364 157.00539 
L 176.045455 156.724085 
L 192.954545 156.668593 
L 209.863636 157.201543 
L 260.590909 157.22249 
L 277.5 157.562911 
L 294.409091 158.062334 
L 311.318182 158.046443 
L 57.681818 135.576626 
L 74.590909 164.906511 
L 91.5 168.662852 
L 108.409091 168.611916 
L 125.318182 169.080971 
L 142.227273 169.988091 
L 159.136364 171.366217 
L 192.954545 172.296631 
L 209.863636 172.815967 
L 226.772727 172.681034 
L 243.681818 172.373381 
L 260.590909 171.732433 
L 294.409091 171.42597 
L 311.318182 171.36261 
L 57.681818 189.685576 
L 74.590909 164.554082 
L 91.5 165.887776 
L 108.409091 167.936182 
L 125.318182 168.2384 
L 142.227273 166.576588 
L 176.045455 167.032444 
L 192.954545 166.45753 
L 226.772727 167.434895 
L 243.681818 166.887486 
L 260.590909 167.496995 
L 277.5 166.870973 
L 294.409091 166.471645 
L 311.318182 166.320682 
L 57.681818 195.177027 
L 74.590909 181.463773 
L 91.5 179.601771 
L 108.409091 177.991585 
L 125.318182 179.516084 
L 142.227273 177.954384 
L 159.136364 177.706984 
L 176.045455 176.028763 
L 192.954545 176.15638 
L 209.863636 175.557292 
L 226.772727 175.912966 
L 243.681818 175.584917 
L 260.590909 175.451934 
L 277.5 175.67007 
L 294.409091 176.033525 
L 311.318182 176.135346 
L 57.681818 200.948817 
L 74.590909 184.45243 
L 91.5 185.439906 
L 108.409091 186.837305 
L 125.318182 186.048294 
L 159.136364 185.699522 
L 176.045455 185.174992 
L 192.954545 185.314808 
L 209.863636 184.769228 
L 226.772727 184.496222 
L 243.681818 184.739791 
L 260.590909 185.340984 
L 277.5 185.082455 
L 294.409091 185.476779 
L 311.318182 185.292325 
L 57.681818 151.266936 
L 74.590909 188.117268 
L 108.409091 183.56139 
L 125.318182 184.225822 
L 142.227273 184.403857 
L 159.136364 184.0687 
L 176.045455 183.997489 
L 209.863636 183.28483 
L 226.772727 183.713078 
L 243.681818 184.017332 
L 260.590909 184.190605 
L 277.5 184.197955 
L 294.409091 183.911594 
L 311.318182 184.159184 
L 57.681818 160.568097 
L 74.590909 179.689857 
L 91.5 178.699775 
L 108.409091 177.463277 
L 125.318182 178.55625 
L 159.136364 177.599935 
L 176.045455 177.460275 
L 192.954545 177.042743 
L 209.863636 175.862478 
L 226.772727 175.8323 
L 243.681818 175.252745 
L 260.590909 175.540728 
L 277.5 175.678093 
L 294.409091 175.65423 
L 311.318182 176.071486 
L 57.681818 183.082328 
L 74.590909 177.732487 
L 108.409091 177.031631 
L 125.318182 178.220954 
L 142.227273 177.255788 
L 159.136364 177.882811 
L 176.045455 179.755011 
L 209.863636 179.423563 
L 226.772727 179.251308 
L 243.681818 179.752509 
L 260.590909 179.230447 
L 277.5 179.29907 
L 294.409091 180.024859 
L 311.318182 180.491154 
L 57.681818 207.210022 
L 74.590909 174.349006 
L 91.5 176.154206 
L 108.409091 174.080607 
L 125.318182 172.345324 
L 142.227273 173.670943 
L 159.136364 173.833553 
L 176.045455 173.525571 
L 192.954545 173.080966 
L 209.863636 173.99071 
L 226.772727 174.62215 
L 243.681818 174.597389 
L 260.590909 175.073346 
L 294.409091 175.539071 
L 311.318182 176.116003 
L 57.681818 246.24 
L 74.590909 189.273876 
L 91.5 181.429298 
L 108.409091 185.125368 
L 142.227273 184.241886 
L 159.136364 184.785137 
L 176.045455 184.364068 
L 192.954545 183.801767 
L 209.863636 184.299811 
L 226.772727 183.410307 
L 243.681818 183.299514 
L 260.590909 183.706469 
L 277.5 183.531402 
L 294.409091 183.133523 
L 311.318182 183.828547 
L 57.681818 209.084845 
L 74.590909 196.736276 
L 91.5 194.342135 
L 108.409091 194.014 
L 125.318182 194.459157 
L 142.227273 193.780128 
L 159.136364 194.678656 
L 176.045455 194.87417 
L 192.954545 194.701156 
L 209.863636 195.228187 
L 226.772727 195.29869 
L 243.681818 195.61221 
L 260.590909 195.460541 
L 311.318182 196.038974 
L 57.681818 174.960413 
L 74.590909 187.767685 
L 91.5 185.371352 
L 108.409091 183.824647 
L 142.227273 183.062485 
L 159.136364 182.037962 
L 176.045455 182.653614 
L 209.863636 184.531957 
L 226.772727 184.790969 
L 243.681818 184.675483 
L 260.590909 183.930661 
L 277.5 184.688217 
L 311.318182 185.29393 
L 57.681818 229.575378 
L 74.590909 179.098344 
L 91.5 186.264583 
L 108.409091 188.986048 
L 125.318182 191.379999 
L 142.227273 192.148374 
L 159.136364 192.680029 
L 176.045455 191.7399 
L 192.954545 191.605485 
L 209.863636 192.667261 
L 226.772727 192.367993 
L 243.681818 192.763025 
L 260.590909 192.602762 
L 277.5 192.327927 
L 294.409091 192.925807 
L 311.318182 192.421845 
L 311.318182 192.421845 
" clip-path="url(#pbf11908aab)" style="fill: none; stroke: #1f77b4; stroke-width: 1.5; stroke-linecap: square"/>
   </g>
   <g id="patch_3">
    <path d="M 45 256.32 
L 45 34.56 
" style="fill: none; stroke: #000000; stroke-width: 0.8; stroke-linejoin: miter; stroke-linecap: square"/>
   </g>
   <g id="patch_4">
    <path d="M 324 256.32 
L 324 34.56 
" style="fill: none; stroke: #000000; stroke-width: 0.8; stroke-linejoin: miter; stroke-linecap: square"/>
   </g>
   <g id="patch_5">
    <path d="M 45 256.32 
L 324 256.32 
" style="fill: none; stroke: #000000; stroke-width: 0.8; stroke-linejoin: miter; stroke-linecap: square"/>
   </g>
   <g id="patch_6">
    <path d="M 45 34.56 
L 324 34.56 
" style="fill: none; stroke: #000000; stroke-width: 0.8; stroke-linejoin: miter; stroke-linecap: square"/>
   </g>
   <g id="text_17">
    <!-- val loss vs steps -->
    <g transform="translate(135.51375 28.56)scale(0.12 -0.12)">
     <defs>
      <path id="DejaVuSans-76" d="M 191 3500 
L 800 3500 
L 1894 563 
L 2988 3500 
L 3597 3500 
L 2284 0 
L 1503 0 
L 191 3500 
z
" transform="scale(0.015625)"/>
      <path id="DejaVuSans-61" d="M 2194 1759 
Q 1497 1759 1228 1600 
Q 959 1441 959 1056 
Q 959 750 1161 570 
Q 1363 391 1709 391 
Q 2188 391 2477 730 
Q 2766 1069 2766 1631 
L 2766 1759 
L 2194 1759 
z
M 3341 1997 
L 3341 0 
L 2766 0 
L 2766 531 
Q 2569 213 2275 61 
Q 1981 -91 1556 -91 
Q 1019 -91 701 211 
Q 384 513 384 1019 
Q 384 1609 779 1909 
Q 1175 2209 1959 2209 
L 2766 2209 
L 2766 2266 
Q 2766 2663 2505 2880 
Q 2244 3097 1772 3097 
Q 1472 3097 1187 3025 
Q 903 2953 641 2809 
L 641 3341 
Q 956 3463 1253 3523 
Q 1550 3584 1831 3584 
Q 2591 3584 2966 3190 
Q 3341 2797 3341 1997 
z
" transform="scale(0.015625)"/>
      <path id="DejaVuSans-20" transform="scale(0.015625)"/>
     </defs>
     <use xlink:href="#DejaVuSans-76"/>
     <use xlink:href="#DejaVuSans-61" x="59.179688"/>
     <use xlink:href="#DejaVuSans-6c" x="120.458984"/>
     <use xlink:href="#DejaVuSans-20" x="148.242188"/>
     <use xlink:href="#DejaVuSans-6c" x="180.029297"/>
     <use xlink:href="#DejaVuSans-6f" x="207.8125"/>
     <use xlink:href="#DejaVuSans-73" x="268.994141"/>
     <use xlink:href="#DejaVuSans-73" x="321.09375"/>
     <use xlink:href="#DejaVuSans-20" x="373.193359"/>
     <use xlink:href="#DejaVuSans-76" x="404.980469"/>
     <use xlink:href="#DejaVuSans-73" x="464.160156"/>
     <use xlink:href="#DejaVuSans-20" x="516.259766"/>
     <use xlink:href="#DejaVuSans-73" x="548.046875"/>
     <use xlink:href="#DejaVuSans-74" x="600.146484"/>
     <use xlink:href="#DejaVuSans-65" x="639.355469"/>
     <use xlink:href="#DejaVuSans-70" x="700.878906"/>
     <use xlink:href="#DejaVuSans-73" x="764.355469"/>
    </g>
   </g>
  </g>
 </g>
 <defs>
  <clipPath id="pbf11908aab">
   <rect x="45" y="34.56" width="279" height="221.76"/>
  </clipPath>
 </defs>
</svg>
